<?xml version="1.0" encoding="utf-8"?>
<!-- Uploaded to: SVG Repo, www.svgrepo.com, Generator: SVG Repo Mixer Tools -->
<svg width="800px" height="800px" viewBox="0 0 1024 1024" class="icon"  version="1.1" xmlns="http://www.w3.org/2000/svg"><path d="M135.7 71h754.6v881.6H135.7z" fill="#89B7F5" /><path d="M890.3 966.2H135.7c-7.5 0-13.6-6.1-13.6-13.6V71c0-7.5 6.1-13.6 13.6-13.6h754.6c7.5 0 13.6 6.1 13.6 13.6v881.6c0 7.5-6.1 13.6-13.6 13.6z m-741-27.2h727.3V84.6H149.3V939z" fill="#0F53A8" /><path d="M676.5 735h-327c-33 0-59.7-26.7-59.7-59.7v-327c0-33 26.7-59.7 59.7-59.7h327.1c33 0 59.7 26.7 59.7 59.7v327.1c-0.1 32.9-26.8 59.6-59.8 59.6z" fill="#B6CDEF" /><path d="M682.1 748.6H343.9c-37.4 0-67.8-30.4-67.8-67.8V342.7c0-37.4 30.4-67.8 67.8-67.8H682c37.4 0 67.8 30.4 67.8 67.8v338.1c0 37.4-30.4 67.8-67.7 67.8zM343.9 302.2c-22.4 0-40.5 18.2-40.5 40.5v338.1c0 22.4 18.2 40.5 40.5 40.5H682c22.4 0 40.5-18.2 40.5-40.5V342.7c0-22.4-18.2-40.5-40.5-40.5H343.9z" fill="#0F53A8" /><path d="M676.5 213.1h-327c-33 0-59.7-26.7-59.7-59.7V71h446.4v82.4c0 33-26.7 59.7-59.7 59.7z" fill="#B6CDEF" /><path d="M682.1 226.7H343.9c-37.4 0-67.8-30.4-67.8-67.8V71c0-7.5 6.1-13.6 13.6-13.6h446.4c7.5 0 13.6 6.1 13.6 13.6v87.9c0.1 37.4-30.3 67.8-67.6 67.8zM303.4 84.6v74.3c0 22.4 18.2 40.5 40.5 40.5H682c22.4 0 40.5-18.2 40.5-40.5V84.6H303.4z" fill="#0F53A8" /><path d="M676.5 810.5h-327c-33 0-59.7 26.7-59.7 59.7v82.4h446.4v-82.4c0-33-26.7-59.7-59.7-59.7z" fill="#B6CDEF" /><path d="M736.2 966.2H289.8c-7.5 0-13.6-6.1-13.6-13.6v-87.9c0-37.4 30.4-67.8 67.8-67.8h338.1c37.4 0 67.8 30.4 67.8 67.8v87.9c-0.1 7.5-6.2 13.6-13.7 13.6zM303.4 939h419.2v-74.3c0-22.4-18.2-40.5-40.5-40.5H343.9c-22.4 0-40.5 18.2-40.5 40.5V939z" fill="#0F53A8" /><path d="M180.5 116.5h56.6v56.6h-56.6z" fill="#89B7F5" /><path d="M237.1 186.7h-56.6c-7.5 0-13.6-6.1-13.6-13.6v-56.6c0-7.5 6.1-13.6 13.6-13.6h56.6c7.5 0 13.6 6.1 13.6 13.6v56.6c0 7.5-6.1 13.6-13.6 13.6z m-43-27.3h29.4V130h-29.4v29.4z" fill="#0F53A8" /><path d="M180.5 238.8h56.6v56.6h-56.6z" fill="#89B7F5" /><path d="M237.1 309h-56.6c-7.5 0-13.6-6.1-13.6-13.6v-56.6c0-7.5 6.1-13.6 13.6-13.6h56.6c7.5 0 13.6 6.1 13.6 13.6v56.6c0 7.5-6.1 13.6-13.6 13.6z m-43-27.2h29.4v-29.4h-29.4v29.4z" fill="#0F53A8" /><path d="M180.5 361.2h56.6v56.6h-56.6z" fill="#89B7F5" /><path d="M237.1 431.4h-56.6c-7.5 0-13.6-6.1-13.6-13.6v-56.6c0-7.5 6.1-13.6 13.6-13.6h56.6c7.5 0 13.6 6.1 13.6 13.6v56.6c0 7.5-6.1 13.6-13.6 13.6z m-43-27.3h29.4v-29.4h-29.4v29.4z" fill="#0F53A8" /><path d="M180.5 483.5h56.6v56.6h-56.6z" fill="#89B7F5" /><path d="M237.1 553.7h-56.6c-7.5 0-13.6-6.1-13.6-13.6v-56.6c0-7.5 6.1-13.6 13.6-13.6h56.6c7.5 0 13.6 6.1 13.6 13.6v56.6c0 7.5-6.1 13.6-13.6 13.6z m-43-27.2h29.4v-29.4h-29.4v29.4z" fill="#0F53A8" /><path d="M180.5 605.8h56.6v56.6h-56.6z" fill="#89B7F5" /><path d="M237.1 676.1h-56.6c-7.5 0-13.6-6.1-13.6-13.6v-56.6c0-7.5 6.1-13.6 13.6-13.6h56.6c7.5 0 13.6 6.1 13.6 13.6v56.6c0 7.5-6.1 13.6-13.6 13.6z m-43-27.3h29.4v-29.4h-29.4v29.4z" fill="#0F53A8" /><path d="M180.5 728.2h56.6v56.6h-56.6z" fill="#89B7F5" /><path d="M237.1 798.4h-56.6c-7.5 0-13.6-6.1-13.6-13.6v-56.6c0-7.5 6.1-13.6 13.6-13.6h56.6c7.5 0 13.6 6.1 13.6 13.6v56.6c0 7.5-6.1 13.6-13.6 13.6z m-43-27.2h29.4v-29.4h-29.4v29.4z" fill="#0F53A8" /><path d="M180.5 850.5h56.6v56.6h-56.6z" fill="#89B7F5" /><path d="M237.1 920.7h-56.6c-7.5 0-13.6-6.1-13.6-13.6v-56.6c0-7.5 6.1-13.6 13.6-13.6h56.6c7.5 0 13.6 6.1 13.6 13.6v56.6c0 7.5-6.1 13.6-13.6 13.6z m-43-27.2h29.4v-29.4h-29.4v29.4z" fill="#0F53A8" /><path d="M788.9 116.5h56.6v56.6h-56.6z" fill="#89B7F5" /><path d="M845.5 186.7h-56.6c-7.5 0-13.6-6.1-13.6-13.6v-56.6c0-7.5 6.1-13.6 13.6-13.6h56.6c7.5 0 13.6 6.1 13.6 13.6v56.6c0 7.5-6.1 13.6-13.6 13.6z m-43-27.3h29.4V130h-29.4v29.4z" fill="#0F53A8" /><path d="M788.9 238.8h56.6v56.6h-56.6z" fill="#89B7F5" /><path d="M845.5 309h-56.6c-7.5 0-13.6-6.1-13.6-13.6v-56.6c0-7.5 6.1-13.6 13.6-13.6h56.6c7.5 0 13.6 6.1 13.6 13.6v56.6c0 7.5-6.1 13.6-13.6 13.6z m-43-27.2h29.4v-29.4h-29.4v29.4z" fill="#0F53A8" /><path d="M788.9 361.2h56.6v56.6h-56.6z" fill="#89B7F5" /><path d="M845.5 431.4h-56.6c-7.5 0-13.6-6.1-13.6-13.6v-56.6c0-7.5 6.1-13.6 13.6-13.6h56.6c7.5 0 13.6 6.1 13.6 13.6v56.6c0 7.5-6.1 13.6-13.6 13.6z m-43-27.3h29.4v-29.4h-29.4v29.4z" fill="#0F53A8" /><path d="M788.9 483.5h56.6v56.6h-56.6z" fill="#89B7F5" /><path d="M845.5 553.7h-56.6c-7.5 0-13.6-6.1-13.6-13.6v-56.6c0-7.5 6.1-13.6 13.6-13.6h56.6c7.5 0 13.6 6.1 13.6 13.6v56.6c0 7.5-6.1 13.6-13.6 13.6z m-43-27.2h29.4v-29.4h-29.4v29.4z" fill="#0F53A8" /><path d="M788.9 605.8h56.6v56.6h-56.6z" fill="#89B7F5" /><path d="M845.5 676.1h-56.6c-7.5 0-13.6-6.1-13.6-13.6v-56.6c0-7.5 6.1-13.6 13.6-13.6h56.6c7.5 0 13.6 6.1 13.6 13.6v56.6c0 7.5-6.1 13.6-13.6 13.6z m-43-27.3h29.4v-29.4h-29.4v29.4z" fill="#0F53A8" /><path d="M788.9 728.2h56.6v56.6h-56.6z" fill="#89B7F5" /><path d="M845.5 798.4h-56.6c-7.5 0-13.6-6.1-13.6-13.6v-56.6c0-7.5 6.1-13.6 13.6-13.6h56.6c7.5 0 13.6 6.1 13.6 13.6v56.6c0 7.5-6.1 13.6-13.6 13.6z m-43-27.2h29.4v-29.4h-29.4v29.4z" fill="#0F53A8" /><path d="M788.9 850.5h56.6v56.6h-56.6z" fill="#89B7F5" /><path d="M845.5 920.7h-56.6c-7.5 0-13.6-6.1-13.6-13.6v-56.6c0-7.5 6.1-13.6 13.6-13.6h56.6c7.5 0 13.6 6.1 13.6 13.6v56.6c0 7.5-6.1 13.6-13.6 13.6z m-43-27.2h29.4v-29.4h-29.4v29.4z" fill="#0F53A8" /></svg>